<svg width="256" height="242" viewBox="0 0 256 242" fill="none" xmlns="http://www.w3.org/2000/svg">
<mask id="mask0" mask-type="alpha" maskUnits="userSpaceOnUse" x="127" y="29" width="78" height="129">
<rect x="127.592" y="29.9878" width="77.4077" height="127.618" rx="3.0603" fill="#C4C4C4"/>
</mask>
<g mask="url(#mask0)">
<path d="M154.754 108.633C155.248 107.211 156.487 106.099 157.992 106.099H173.625C175.47 106.099 176.907 107.725 176.515 109.529C174.943 116.769 171.462 122.696 166.072 127.308C159.929 132.63 151.929 135.29 142.071 135.29C129.71 135.29 120.004 131.489 112.952 123.887C105.975 116.209 102.487 105.947 102.487 93.0996C102.487 80.2524 105.975 70.0278 112.952 62.4259C120.004 54.7479 129.71 50.9089 142.071 50.9089C151.474 50.9089 159.171 53.3796 165.162 58.3208C170.297 62.4391 173.775 67.674 175.595 74.0255C176.121 75.8594 174.668 77.5917 172.76 77.5917H156.844C155.446 77.5917 154.273 76.6187 153.661 75.3626C151.793 71.5273 147.929 69.6097 142.071 69.6097C136.308 69.6097 131.871 71.7762 128.762 76.1093C125.653 80.3664 124.099 86.0298 124.099 93.0996C124.099 100.169 125.653 105.871 128.762 110.204C131.871 114.461 136.308 116.59 142.071 116.59C145.787 116.59 148.782 115.677 151.057 113.853C152.775 112.519 154.008 110.779 154.754 108.633Z" fill="#FD3D7D"/>
</g>
<path d="M99.6053 87.6473C100.098 86.2271 101.337 85.1177 102.841 85.1177H119.023C120.87 85.1177 122.307 86.7463 121.914 88.551C120.307 95.926 116.734 101.961 111.195 106.656C104.897 112.059 96.6941 114.761 86.5863 114.761C73.9128 114.761 63.9606 110.901 56.7297 103.182C49.5766 95.3849 46 84.9633 46 71.917C46 58.8707 49.5766 48.4878 56.7297 40.7681C63.9606 32.9712 73.9128 29.0728 86.5863 29.0728C96.2276 29.0728 104.119 31.5817 110.262 36.5994C115.541 40.7923 119.111 46.125 120.974 52.5975C121.502 54.4329 120.049 56.1688 118.139 56.1688H101.667C100.273 56.1688 99.1004 55.1998 98.4902 53.9457C96.5818 50.024 92.6139 48.0632 86.5863 48.0632C80.6772 48.0632 76.1288 50.2633 72.9409 54.6635C69.7531 58.9865 68.1592 64.7377 68.1592 71.917C68.1592 79.0963 69.7531 84.8861 72.9409 89.2863C76.1288 93.6093 80.6772 95.7708 86.5863 95.7708C90.3962 95.7708 93.4674 94.8445 95.7999 92.9917C97.5737 91.6283 98.8421 89.8468 99.6053 87.6473Z" fill="#201F24"/>
<mask id="mask1" mask-type="alpha" maskUnits="userSpaceOnUse" x="101" y="0" width="90" height="53">
<rect width="89.2629" height="52.9999" rx="3.0603" transform="matrix(1 0 0 -1 101.093 52.9998)" fill="#C4C4C4"/>
</mask>
<g mask="url(#mask1)">
<path d="M154.755 15.8817C155.249 14.4601 156.489 13.3479 157.994 13.3479H173.626C175.472 13.3479 176.909 14.9742 176.517 16.7777C174.944 24.018 171.463 29.9446 166.073 34.5573C159.931 39.8787 151.93 42.5393 142.072 42.5393C129.712 42.5393 120.005 38.7384 112.953 31.1365C105.976 23.4585 102.488 13.1959 102.488 0.348648C102.488 -12.4986 105.976 -22.7232 112.953 -30.3251C120.005 -38.0031 129.712 -41.842 142.072 -41.842C151.475 -41.842 159.172 -39.3714 165.163 -34.4302C170.298 -30.3119 173.776 -25.077 175.597 -18.7255C176.122 -16.8916 174.669 -15.1593 172.762 -15.1593H156.845C155.448 -15.1593 154.275 -16.1322 153.663 -17.3884C151.794 -21.2237 147.931 -23.1413 142.072 -23.1413C136.309 -23.1413 131.873 -20.9748 128.764 -16.6417C125.655 -12.3846 124.1 -6.72114 124.1 0.348648C124.1 7.41844 125.655 13.1199 128.764 17.453C131.873 21.7101 136.309 23.8386 142.072 23.8386C145.788 23.8386 148.783 22.9264 151.058 21.1019C152.777 19.7681 154.009 18.028 154.755 15.8817Z" fill="white"/>
</g>
<path d="M44.7539 207.949C44.3555 213.457 42.3164 217.793 38.6367 220.957C34.9805 224.121 30.1523 225.703 24.1523 225.703C17.5898 225.703 12.4219 223.5 8.64844 219.094C4.89844 214.664 3.02344 208.594 3.02344 200.883V197.754C3.02344 192.832 3.89062 188.496 5.625 184.746C7.35938 180.996 9.83203 178.125 13.043 176.133C16.2773 174.117 20.0273 173.109 24.293 173.109C30.1992 173.109 34.957 174.691 38.5664 177.855C42.1758 181.02 44.2617 185.461 44.8242 191.18H34.2773C34.0195 187.875 33.0938 185.484 31.5 184.008C29.9297 182.508 27.5273 181.758 24.293 181.758C20.7773 181.758 18.1406 183.023 16.3828 185.555C14.6484 188.062 13.7578 191.965 13.7109 197.262V201.129C13.7109 206.66 14.543 210.703 16.207 213.258C17.8945 215.812 20.543 217.09 24.1523 217.09C27.4102 217.09 29.8359 216.352 31.4297 214.875C33.0469 213.375 33.9727 211.066 34.207 207.949H44.7539ZM49.4297 205.629C49.4297 201.855 50.1562 198.492 51.6094 195.539C53.0625 192.586 55.1484 190.301 57.8672 188.684C60.6094 187.066 63.7852 186.258 67.3945 186.258C72.5273 186.258 76.7109 187.828 79.9453 190.969C83.2031 194.109 85.0195 198.375 85.3945 203.766L85.4648 206.367C85.4648 212.203 83.8359 216.891 80.5781 220.43C77.3203 223.945 72.9492 225.703 67.4648 225.703C61.9805 225.703 57.5977 223.945 54.3164 220.43C51.0586 216.914 49.4297 212.133 49.4297 206.086V205.629ZM59.5898 206.367C59.5898 209.977 60.2695 212.742 61.6289 214.664C62.9883 216.562 64.9336 217.512 67.4648 217.512C69.9258 217.512 71.8477 216.574 73.2305 214.699C74.6133 212.801 75.3047 209.777 75.3047 205.629C75.3047 202.09 74.6133 199.348 73.2305 197.402C71.8477 195.457 69.9023 194.484 67.3945 194.484C64.9102 194.484 62.9883 195.457 61.6289 197.402C60.2695 199.324 59.5898 202.312 59.5898 206.367ZM90.1406 205.699C90.1406 199.77 91.4648 195.047 94.1133 191.531C96.7852 188.016 100.43 186.258 105.047 186.258C108.75 186.258 111.809 187.641 114.223 190.406V171H124.418V225H115.242L114.75 220.957C112.219 224.121 108.961 225.703 104.977 225.703C100.5 225.703 96.9023 223.945 94.1836 220.43C91.4883 216.891 90.1406 211.98 90.1406 205.699ZM100.301 206.438C100.301 210 100.922 212.73 102.164 214.629C103.406 216.527 105.211 217.477 107.578 217.477C110.719 217.477 112.934 216.152 114.223 213.504V198.492C112.957 195.844 110.766 194.52 107.648 194.52C102.75 194.52 100.301 198.492 100.301 206.438ZM149.801 225.703C144.223 225.703 139.676 223.992 136.16 220.57C132.668 217.148 130.922 212.59 130.922 206.895V205.91C130.922 202.09 131.66 198.68 133.137 195.68C134.613 192.656 136.699 190.336 139.395 188.719C142.113 187.078 145.207 186.258 148.676 186.258C153.879 186.258 157.969 187.898 160.945 191.18C163.945 194.461 165.445 199.113 165.445 205.137V209.285H141.223C141.551 211.77 142.535 213.762 144.176 215.262C145.84 216.762 147.938 217.512 150.469 217.512C154.383 217.512 157.441 216.094 159.645 213.258L164.637 218.848C163.113 221.004 161.051 222.691 158.449 223.91C155.848 225.105 152.965 225.703 149.801 225.703ZM148.641 194.484C146.625 194.484 144.984 195.164 143.719 196.523C142.477 197.883 141.68 199.828 141.328 202.359H155.461V201.551C155.414 199.301 154.805 197.566 153.633 196.348C152.461 195.105 150.797 194.484 148.641 194.484ZM204.363 177.609V186.961H210.867V194.414H204.363V213.398C204.363 214.805 204.633 215.812 205.172 216.422C205.711 217.031 206.742 217.336 208.266 217.336C209.391 217.336 210.387 217.254 211.254 217.09V224.789C209.262 225.398 207.211 225.703 205.102 225.703C197.977 225.703 194.344 222.105 194.203 214.91V194.414H188.648V186.961H194.203V177.609H204.363ZM230.766 212.59L237.832 186.961H248.449L235.617 225H225.914L213.082 186.961H223.699L230.766 212.59Z" fill="white"/>
<path d="M171.773 220.008C171.773 218.391 172.312 217.078 173.391 216.07C174.492 215.062 175.863 214.559 177.504 214.559C179.168 214.559 180.539 215.062 181.617 216.07C182.719 217.078 183.27 218.391 183.27 220.008C183.27 221.602 182.73 222.902 181.652 223.91C180.574 224.895 179.191 225.387 177.504 225.387C175.84 225.387 174.469 224.895 173.391 223.91C172.312 222.902 171.773 221.602 171.773 220.008Z" fill="#FD3D7D"/>
</svg>
