<svg width="159" height="158" viewBox="0 0 159 158" fill="none" xmlns="http://www.w3.org/2000/svg">
<mask id="mask0" mask-type="alpha" maskUnits="userSpaceOnUse" x="81" y="29" width="78" height="129">
<rect x="81.5923" y="29.9878" width="77.4077" height="127.618" rx="3.0603" fill="#C4C4C4"/>
</mask>
<g mask="url(#mask0)">
<path d="M108.754 108.633C109.248 107.211 110.487 106.099 111.992 106.099H127.625C129.47 106.099 130.907 107.725 130.515 109.529C128.943 116.769 125.462 122.696 120.072 127.308C113.929 132.63 105.929 135.29 96.0708 135.29C83.7103 135.29 74.0038 131.489 66.9515 123.887C59.975 116.209 56.4868 105.947 56.4868 93.0996C56.4868 80.2524 59.975 70.0278 66.9515 62.4259C74.0038 54.7479 83.7103 50.9089 96.0708 50.9089C105.474 50.9089 113.171 53.3796 119.162 58.3208C124.297 62.4391 127.775 67.674 129.595 74.0255C130.121 75.8594 128.668 77.5917 126.76 77.5917H110.844C109.446 77.5917 108.273 76.6187 107.661 75.3626C105.793 71.5273 101.929 69.6097 96.0708 69.6097C90.3076 69.6097 85.8715 71.7762 82.7624 76.1093C79.6533 80.3664 78.0988 86.0298 78.0988 93.0996C78.0988 100.169 79.6533 105.871 82.7624 110.204C85.8715 114.461 90.3076 116.59 96.0708 116.59C99.7866 116.59 102.782 115.677 105.057 113.853C106.775 112.519 108.008 110.779 108.754 108.633Z" fill="#FD3D7D"/>
</g>
<path d="M53.6053 87.6473C54.0981 86.2271 55.3375 85.1177 56.8407 85.1177H73.0229C74.87 85.1177 76.3072 86.7463 75.914 88.551C74.3069 95.926 70.7338 101.961 65.1947 106.656C58.8969 112.059 50.6941 114.761 40.5863 114.761C27.9128 114.761 17.9606 110.901 10.7297 103.182C3.57657 95.3849 0 84.9633 0 71.917C0 58.8707 3.57657 48.4878 10.7297 40.7681C17.9606 32.9712 27.9128 29.0728 40.5863 29.0728C50.2276 29.0728 58.1193 31.5817 64.2617 36.5994C69.5405 40.7923 73.1113 46.125 74.9742 52.5975C75.5024 54.4329 74.0492 56.1688 72.1394 56.1688H55.6674C54.2728 56.1688 53.1004 55.1998 52.4902 53.9457C50.5818 50.024 46.6139 48.0632 40.5863 48.0632C34.6772 48.0632 30.1288 50.2633 26.9409 54.6635C23.7531 58.9865 22.1592 64.7377 22.1592 71.917C22.1592 79.0963 23.7531 84.8861 26.9409 89.2863C30.1288 93.6093 34.6772 95.7708 40.5863 95.7708C44.3962 95.7708 47.4674 94.8445 49.7999 92.9917C51.5737 91.6283 52.8421 89.8468 53.6053 87.6473Z" fill="#201F24"/>
<mask id="mask1" mask-type="alpha" maskUnits="userSpaceOnUse" x="55" y="0" width="90" height="53">
<rect width="89.2629" height="52.9999" rx="3.0603" transform="matrix(1 0 0 -1 55.093 52.9998)" fill="#C4C4C4"/>
</mask>
<g mask="url(#mask1)">
<path d="M108.755 15.8817C109.249 14.4601 110.489 13.3479 111.994 13.3479H127.626C129.472 13.3479 130.909 14.9742 130.517 16.7777C128.944 24.018 125.463 29.9446 120.073 34.5573C113.931 39.8787 105.93 42.5393 96.0722 42.5393C83.7116 42.5393 74.0052 38.7384 66.9529 31.1365C59.9764 23.4585 56.4881 13.1959 56.4881 0.348648C56.4881 -12.4986 59.9764 -22.7232 66.9529 -30.3251C74.0052 -38.0031 83.7116 -41.842 96.0722 -41.842C105.475 -41.842 113.172 -39.3714 119.163 -34.4302C124.298 -30.3119 127.776 -25.077 129.597 -18.7255C130.122 -16.8916 128.669 -15.1593 126.762 -15.1593H110.845C109.448 -15.1593 108.275 -16.1322 107.663 -17.3884C105.794 -21.2237 101.931 -23.1413 96.0722 -23.1413C90.309 -23.1413 85.8728 -20.9748 82.7637 -16.6417C79.6546 -12.3846 78.1001 -6.72114 78.1001 0.348648C78.1001 7.41844 79.6546 13.1199 82.7637 17.453C85.8728 21.7101 90.309 23.8386 96.0722 23.8386C99.7879 23.8386 102.783 22.9264 105.058 21.1019C106.777 19.7681 108.009 18.028 108.755 15.8817Z" fill="white"/>
</g>
</svg>
